<svg width="22" height="24" viewBox="0 0 22 24" fill="none" xmlns="http://www.w3.org/2000/svg">
<path fill-rule="evenodd" clip-rule="evenodd" d="M14.5925 0.829499C14.4974 0.639053 14.3629 0.471022 14.1979 0.336574C14.0329 0.202126 13.8411 0.10434 13.6354 0.0497147C13.4297 -0.00491043 13.2147 -0.0151236 13.0047 0.0197537C12.7947 0.054631 12.5945 0.1338 12.4175 0.251999C11.9 0.596999 11.4965 1.089 11.1845 1.572C10.8635 2.067 10.58 2.6415 10.3295 3.246C9.82851 4.452 9.40851 5.898 9.06951 7.347C8.65954 9.11774 8.35252 10.9107 8.15001 12.717C7.53971 12.3236 7.04933 11.7699 6.73251 11.1165C6.24051 10.0965 6.13551 8.8155 6.13551 7.1355C6.13544 6.83887 6.04744 6.54893 5.88261 6.30231C5.71778 6.0557 5.48354 5.86349 5.20949 5.74998C4.93544 5.63648 4.63389 5.60677 4.34296 5.66463C4.05203 5.72248 3.78479 5.86529 3.57501 6.075C2.59875 7.04916 1.82455 8.20656 1.29685 9.48076C0.76915 10.755 0.498353 12.1209 0.500008 13.5C0.500132 15.2267 0.926077 16.9267 1.74012 18.4494C2.55415 19.9722 3.73116 21.2707 5.16688 22.2299C6.6026 23.1891 8.25273 23.7795 9.9711 23.9487C11.6895 24.1179 13.423 23.8607 15.0183 23.1999C16.6135 22.5391 18.0212 21.4951 19.1166 20.1604C20.212 18.8257 20.9613 17.2414 21.2982 15.5479C21.6351 13.8544 21.5492 12.104 21.048 10.4516C20.5468 8.79926 19.6459 7.29601 18.425 6.075C17.537 5.1885 16.955 4.5975 16.403 3.8745C15.8585 3.1605 15.317 2.28 14.5925 0.829499ZM14.18 19.68C13.5507 20.3085 12.7492 20.7365 11.8768 20.9098C11.0044 21.0831 10.1002 20.994 9.27847 20.6537C8.45669 20.3135 7.75417 19.7373 7.25965 18.998C6.76513 18.2587 6.50079 17.3894 6.50001 16.5C6.50001 16.5 7.81851 17.25 10.25 17.25C10.25 15.75 11 11.25 12.125 10.5C12.875 12 13.304 12.4395 14.1815 13.3185C14.6001 13.7358 14.932 14.2317 15.1583 14.7777C15.3846 15.3236 15.5007 15.909 15.5 16.5C15.5007 17.091 15.3846 17.6764 15.1583 18.2223C14.932 18.7683 14.6001 19.2642 14.1815 19.6815L14.18 19.68Z" fill="#436475"/>
</svg>
