<svg width="18" height="16" viewBox="0 0 18 16" fill="none" xmlns="http://www.w3.org/2000/svg">
<path fill-rule="evenodd" clip-rule="evenodd" d="M10.2697 1.17C9.86389 -0.39 7.49325 -0.39 7.08747 1.17C7.02688 1.40442 6.90805 1.62213 6.74065 1.80541C6.57325 1.9887 6.362 2.13238 6.12409 2.22477C5.88619 2.31716 5.62835 2.35564 5.37156 2.33709C5.11478 2.31854 4.8663 2.24347 4.64634 2.118C3.18124 1.282 1.50471 2.852 2.39744 4.224C2.97408 5.11 2.46258 6.266 1.38618 6.511C-0.28075 6.89 -0.28075 9.111 1.38618 9.489C1.63656 9.54581 1.86909 9.65719 2.06481 9.81407C2.26053 9.97096 2.41392 10.1689 2.51249 10.3918C2.61105 10.6147 2.652 10.8563 2.63201 11.0968C2.61202 11.3373 2.53165 11.5701 2.39744 11.776C1.50471 13.148 3.18124 14.718 4.64634 13.882C4.86626 13.7563 5.11476 13.6811 5.37162 13.6623C5.62847 13.6436 5.88642 13.682 6.12445 13.7743C6.36248 13.8666 6.57387 14.0102 6.7414 14.1935C6.90893 14.3768 7.02787 14.5945 7.08853 14.829C7.49325 16.39 9.86496 16.39 10.2686 14.829C10.3295 14.5946 10.4485 14.377 10.6161 14.1939C10.7837 14.0107 10.995 13.8672 11.233 13.7749C11.4709 13.6826 11.7288 13.6442 11.9856 13.6628C12.2424 13.6815 12.4908 13.7565 12.7108 13.882C14.1759 14.718 15.8524 13.148 14.9597 11.776C14.8257 11.57 14.7456 11.3373 14.7257 11.0969C14.7058 10.8564 14.7468 10.6149 14.8453 10.3921C14.9439 10.1692 15.0972 9.97133 15.2928 9.81441C15.4883 9.65749 15.7207 9.546 15.971 9.489C17.6379 9.11 17.6379 6.889 15.971 6.511C15.7206 6.45419 15.4881 6.34281 15.2923 6.18593C15.0966 6.02904 14.9432 5.83109 14.8447 5.60818C14.7461 5.38527 14.7051 5.14372 14.7251 4.90318C14.7451 4.66265 14.8255 4.42994 14.9597 4.224C15.8524 2.852 14.1759 1.282 12.7108 2.118C12.4909 2.24368 12.2424 2.31895 11.9855 2.33767C11.7287 2.35639 11.4707 2.31804 11.2327 2.22574C10.9947 2.13344 10.7833 1.9898 10.6157 1.80651C10.4482 1.62323 10.3293 1.40548 10.2686 1.171L10.2697 1.17ZM8.67857 11C9.52821 11 10.3431 10.6839 10.9438 10.1213C11.5446 9.55871 11.8821 8.79565 11.8821 8C11.8821 7.20435 11.5446 6.44129 10.9438 5.87868C10.3431 5.31607 9.52821 5 8.67857 5C7.82893 5 7.01409 5.31607 6.41331 5.87868C5.81252 6.44129 5.475 7.20435 5.475 8C5.475 8.79565 5.81252 9.55871 6.41331 10.1213C7.01409 10.6839 7.82893 11 8.67857 11Z" fill="#436475"/>
</svg>
